<?xml version="1.0" encoding="utf-8"?>
<!-- Generator: Adobe Illustrator 22.1.0, SVG Export Plug-In . SVG Version: 6.00 Build 0)  -->
<svg version="1.1" id="Слой_1" xmlns="http://www.w3.org/2000/svg" xmlns:xlink="http://www.w3.org/1999/xlink" x="0px" y="0px"
	 viewBox="0 0 36.5 42" style="enable-background:new 0 0 36.5 42;" xml:space="preserve">
<style type="text/css">
	.st0{fill:url(#Combined-Shape_2_);}
	.st1{fill:#272A34;}
</style>
<radialGradient id="Combined-Shape_2_" cx="-878.39" cy="729.1129" r="0.5766" gradientTransform="matrix(2.234858e-15 36.498 36.4435 -2.231522e-15 -26553.2012 32080.4785)" gradientUnits="userSpaceOnUse">
	<stop  offset="0" style="stop-color:#FF5CA9"/>
	<stop  offset="1" style="stop-color:#BA3072"/>
</radialGradient>
<path id="Combined-Shape_1_" class="st0" d="M17.4,16.1L17.4,16.1l1-0.6l4.7,2.7l0.5,0.3v6l-5.2,3l-2.9-1.7l-1.7-1l-0.5-0.3v-6
	L17.4,16.1z M4.9,7.7l12,6.9L0,24.3V10.5L4.9,7.7z M11.7,19.4v18.8L0,31.5v-5.4L11.7,19.4z M23.6,3.1v13.7l-1.1-0.6l-16-9.3L18.2,0
	L23.6,3.1z M18.4,29.3L18.4,29.3l11,6.3L18.2,42l-5-2.9V26.3L18.4,29.3z M36.5,31.5L31,34.7l-11-6.3l16.5-9.5V31.5z M36.5,10.5v6.6
	l-11.3,6.5V4L36.5,10.5z"/>
<path id="Path_953" class="st1" d="M59.6,94.2V78.7h8.1c1.6-0.1,3.1,0.4,4.3,1.4c0.7,0.7,1,1.6,1,2.5c0,1.6-1,3-2.4,3.4
	c0.9,0.2,1.7,0.7,2.3,1.4c0.6,0.7,0.8,1.5,0.8,2.4c0,1.2-0.6,2.4-1.6,3.1c-1.3,0.8-2.9,1.2-4.4,1.1L59.6,94.2z M63.8,90.7h3.4
	c1.4,0,2.1-0.5,2.1-1.5c0-0.9-0.7-1.4-2.1-1.4h-3.3L63.8,90.7z M63.8,84.9h2.8c1.4,0,2.1-0.5,2.1-1.4c0-0.9-0.7-1.3-2-1.3h-2.9
	L63.8,84.9z M75.6,94.2v-12h4.3v12H75.6z M75.5,81.1v-2.4H80v2.4H75.5z M81.4,94.2l5.4-7.9l-5.2-7.6h5l2.8,4.4l2.8-4.4h4.9L92,86.2
	l5.4,7.9h-5.1l-3-4.7l-3.1,4.7L81.4,94.2z M99.1,94.2V78.7h8.1c1.6-0.1,3.1,0.4,4.3,1.4c0.7,0.7,1,1.6,1,2.5c0,1.6-1,3-2.4,3.4
	c0.9,0.2,1.7,0.7,2.3,1.4c0.6,0.7,0.8,1.5,0.8,2.4c0,1.2-0.6,2.4-1.6,3.1c-1.3,0.8-2.9,1.2-4.4,1.1H99.1z M103.4,90.7h3.4
	c1.4,0,2.1-0.5,2.1-1.5c0-0.9-0.7-1.4-2.1-1.4h-3.3V90.7z M103.4,84.9h2.8c1.4,0,2.1-0.5,2.1-1.4c0-0.9-0.7-1.3-2-1.3h-2.9V84.9z
	 M115.1,94.2v-12h4.3v12H115.1z M115,81.1v-2.4h4.5v2.4H115z M125.9,94.2V82.4h-4.8v-3.8h13.9v3.8h-4.8v11.7H125.9z"/>
</svg>
